<?xml version="1.0" encoding="UTF-8"?>
<svg version="1.1" xmlns="http://www.w3.org/2000/svg" width="49" height="52">
<path d="M0 0 C16.17 0 32.34 0 49 0 C49 17.16 49 34.32 49 52 C32.83 52 16.66 52 0 52 C0 34.84 0 17.68 0 0 Z " fill="#0D1327" transform="translate(0,0)"/>
<path d="M0 0 C0.93714844 -0.00257812 1.87429687 -0.00515625 2.83984375 -0.0078125 C7.80437377 0.06260637 11.52949427 0.18039685 15.5 3.5 C17.36630915 7.2326183 16.72798906 11.70470785 16.75 15.8125 C16.770625 16.76318359 16.79125 17.71386719 16.8125 18.69335938 C16.8627921 27.68935942 16.8627921 27.68935942 13.5 31.5 C9.06039131 32.97986956 4.71322847 32.72497927 0.0625 32.75 C-0.89205078 32.770625 -1.84660156 32.79125 -2.83007812 32.8125 C-3.75111328 32.81765625 -4.67214844 32.8228125 -5.62109375 32.828125 C-6.4608374 32.8374707 -7.30058105 32.84681641 -8.16577148 32.85644531 C-11.05257208 32.4156202 -12.3942602 31.49722064 -14.5 29.5 C-15.97372241 25.07883277 -15.80613795 20.75753781 -15.875 16.125 C-15.91238281 15.17882813 -15.94976562 14.23265625 -15.98828125 13.2578125 C-16.04407721 8.84373228 -15.92625362 6.21517866 -13.6328125 2.3671875 C-9.08461237 -0.34358515 -5.19647716 -0.1572524 0 0 Z " fill="#503BF4" transform="translate(24.5,11.5)"/>
<path d="M0 0 C3 0.25 3 0.25 5 2.25 C5.125 4.875 5.125 4.875 5 7.25 C5.99 7.58 6.98 7.91 8 8.25 C8 11.55 8 14.85 8 18.25 C2.72 18.25 -2.56 18.25 -8 18.25 C-8 14.95 -8 11.65 -8 8.25 C-7.01 7.92 -6.02 7.59 -5 7.25 C-5.061875 6.074375 -5.061875 6.074375 -5.125 4.875 C-4.93732608 0.93384762 -3.8500613 0.32083844 0 0 Z " fill="#E4E1FD" transform="translate(25,18.75)"/>
<path d="M0 0 C4.62 0 9.24 0 14 0 C14 2.31 14 4.62 14 7 C9.38 7 4.76 7 0 7 C0 4.69 0 2.38 0 0 Z " fill="#5843F6" transform="translate(18,28)"/>
<path d="M0 0 C1.98 0 3.96 0 6 0 C6 1.65 6 3.3 6 5 C4.02 5 2.04 5 0 5 C0 3.35 0 1.7 0 0 Z " fill="#533EF6" transform="translate(22,21)"/>
</svg>
